<?xml version="1.0" standalone="no"?>
<!DOCTYPE svg PUBLIC "-//W3C//DTD SVG 20010904//EN"
 "http://www.w3.org/TR/2001/REC-SVG-20010904/DTD/svg10.dtd">
<svg version="1.0" xmlns="http://www.w3.org/2000/svg"
 width="1280.000000pt" height="512.000000pt" viewBox="0 0 1280.000000 512.000000"
 preserveAspectRatio="xMidYMid meet">
<metadata>
Created by potrace 1.15, written by Peter Selinger 2001-2017
</metadata>
<g transform="translate(0.000000,512.000000) scale(0.100000,-0.100000)"
fill="#000000" stroke="none">
<path d="M11768 5110 c-34 -21 -51 -114 -51 -275 -1 -142 1 -153 26 -206 15
-31 27 -60 27 -64 0 -9 -773 1 -972 12 l-118 6 0 36 c0 52 -20 83 -70 110 -56
31 -152 35 -222 8 -52 -20 -108 -76 -108 -108 0 -12 -10 -23 -27 -30 -19 -7
-301 -9 -898 -6 -777 4 -878 6 -945 21 -81 19 -238 18 -470 -3 -63 -5 -289
-10 -502 -10 l-388 -1 -14 34 c-20 47 -47 60 -89 43 -18 -8 -62 -17 -97 -21
-61 -6 -89 -2 -168 23 -28 8 -36 7 -53 -10 -10 -10 -19 -30 -19 -44 l0 -25
-483 0 -484 0 -11 25 c-20 44 -14 67 42 165 49 86 53 97 39 112 -21 23 -137
83 -210 107 -86 29 -173 27 -173 -3 -1 -34 -19 -41 -134 -46 l-115 -5 -42 -40
c-52 -50 -69 -90 -69 -158 0 -30 -3 -76 -7 -102 l-6 -48 -361 5 c-199 4 -367
4 -374 1 -25 -10 -47 -72 -102 -283 l-55 -215 -230 -6 c-126 -4 -822 -10
-1546 -14 l-1316 -7 -33 82 c-43 107 -79 143 -168 170 -147 43 -425 55 -503
21 -24 -10 -63 -22 -86 -26 l-41 -6 -6 -77 c-3 -42 -8 -131 -11 -197 -23 -507
-49 -871 -95 -1322 -21 -203 -30 -332 -28 -420 l3 -128 47 -7 c26 -3 59 -16
74 -27 35 -28 89 -37 111 -20 9 8 31 46 49 84 103 224 171 509 239 1000 19
143 40 270 45 283 12 28 79 109 94 115 20 7 3281 -10 3298 -18 10 -4 39 -37
64 -74 26 -36 87 -117 137 -178 l90 -113 181 0 c218 0 298 -10 329 -40 13 -12
54 -32 93 -44 38 -12 87 -34 109 -48 115 -73 202 -242 174 -341 -15 -56 -117
-217 -459 -722 -175 -260 -325 -484 -331 -499 -10 -22 -10 -32 3 -59 29 -59
100 -127 207 -198 110 -73 689 -369 722 -369 29 0 49 51 49 125 0 38 8 89 19
123 42 125 410 898 456 959 24 30 30 33 82 33 57 0 115 -23 213 -85 39 -25 42
-25 252 -25 117 1 270 5 339 9 149 9 206 33 251 104 24 38 187 411 218 498 12
33 18 37 58 43 72 10 99 7 106 -10 3 -8 -1 -61 -9 -117 -18 -116 -14 -150 20
-165 19 -9 26 -7 40 8 22 24 62 151 76 243 7 39 15 76 19 80 11 12 129 -4 145
-20 8 -7 41 -100 75 -206 104 -327 265 -804 335 -987 236 -627 577 -1276 773
-1475 24 -25 51 -45 60 -45 10 0 51 19 92 41 94 52 409 259 432 285 16 18 15
22 -13 77 -16 32 -62 111 -101 175 -256 418 -412 726 -573 1132 -121 303 -279
820 -331 1076 l-18 92 24 70 c22 63 23 74 11 113 -7 24 -23 58 -35 74 -19 27
-21 41 -19 143 3 130 15 167 72 211 32 25 93 61 104 61 2 0 7 -75 10 -167 5
-162 15 -219 40 -235 21 -13 90 -9 365 22 650 74 2479 300 2640 325 103 17
110 19 164 63 37 29 38 29 200 35 l163 5 27 31 28 31 147 1 c82 0 219 4 306 8
204 9 201 7 205 161 4 105 3 110 -21 134 -28 28 -65 32 -411 41 -121 3 -228
11 -238 16 -29 16 -24 82 10 126 26 36 27 39 27 177 0 147 -7 177 -55 231 -14
16 -19 47 -24 145 -9 158 -28 243 -72 317 -56 93 -63 97 -152 101 -42 1 -85
-2 -94 -8z m-5464 -2532 c8 -148 25 -211 78 -301 23 -37 38 -70 35 -74 -4 -3
-60 -2 -126 4 -119 9 -120 10 -201 58 -115 70 -150 101 -150 133 0 14 30 88
67 164 l66 138 112 0 112 0 7 -122z m695 116 c17 -4 31 -11 31 -17 0 -16 -108
-283 -142 -352 -50 -100 -67 -112 -162 -119 -44 -4 -105 -3 -134 1 l-52 8 -46
110 c-25 61 -48 133 -51 161 -13 114 19 188 87 204 42 9 424 13 469 4z"/>
</g>
</svg>
