<?xml version="1.0" standalone="no"?>
<!DOCTYPE svg PUBLIC "-//W3C//DTD SVG 20010904//EN"
 "http://www.w3.org/TR/2001/REC-SVG-20010904/DTD/svg10.dtd">
<svg version="1.0" xmlns="http://www.w3.org/2000/svg"
 width="1280.000000pt" height="640.000000pt" viewBox="0 0 1280.000000 640.000000"
 preserveAspectRatio="xMidYMid meet">
<metadata>
Created by potrace 1.15, written by Peter Selinger 2001-2017
</metadata>
<g transform="translate(0.000000,640.000000) scale(0.100000,-0.100000)"
fill="#000000" stroke="none">
<path d="M1907 5866 c-43 -16 -67 -34 -67 -50 0 -6 31 -30 70 -54 118 -73 164
-116 255 -239 49 -65 101 -134 118 -153 65 -77 184 -192 225 -218 l44 -27 -6
-55 c-3 -30 -10 -77 -15 -105 -6 -27 -10 -86 -10 -131 l-1 -81 -63 -60 c-74
-72 -92 -81 -503 -263 -547 -243 -593 -272 -668 -417 -48 -93 -55 -99 -106
-108 -28 -5 -54 -18 -71 -35 -28 -27 -32 -39 -44 -112 -11 -70 -42 -117 -255
-388 -357 -454 -553 -855 -689 -1407 -81 -330 -114 -596 -115 -933 -1 -278 7
-329 66 -389 85 -88 177 -102 702 -108 658 -8 1007 27 1194 118 87 43 115 86
121 187 4 96 -7 163 -84 517 -176 804 -193 1029 -93 1232 39 80 146 197 193
213 38 12 85 62 85 89 0 27 64 83 107 92 21 4 72 20 113 35 91 33 226 43 298
23 104 -29 206 -173 272 -389 42 -133 63 -180 117 -262 78 -119 188 -204 361
-278 155 -67 215 -75 552 -75 272 1 301 2 373 23 175 49 333 136 437 241 118
119 155 216 185 489 28 255 63 332 276 612 132 173 186 227 234 234 164 24
282 75 361 155 27 27 66 56 86 64 22 9 46 30 58 49 12 21 30 35 47 38 27 5 28
8 28 60 l0 55 -38 6 c-28 4 -50 18 -80 51 -23 25 -52 49 -64 52 -23 7 -23 9
-23 207 l0 199 228 -1 c125 0 277 -5 337 -10 247 -22 256 -22 336 -4 73 17 81
17 151 0 79 -18 143 -17 240 5 50 11 67 10 132 -5 80 -19 188 -17 210 5 6 6
11 46 11 96 0 73 -3 88 -19 100 -30 21 -145 18 -213 -6 -71 -25 -90 -25 -144
0 -60 27 -161 27 -229 0 -63 -25 -104 -25 -155 0 -51 25 -163 26 -220 3 -33
-13 -95 -17 -352 -20 l-313 -5 0 61 c0 101 -47 94 720 102 830 8 4640 9 5351
0 432 -5 539 -9 552 -20 12 -9 35 -12 78 -9 72 5 85 17 130 113 106 224 102
603 -7 706 -32 30 -119 38 -165 15 -32 -16 -123 -21 -167 -10 -18 5 -27 21
-43 79 -23 78 -31 85 -94 85 -45 0 -103 -20 -285 -99 l-164 -71 -2927 0 -2927
0 -25 63 c-14 34 -28 70 -31 80 -5 16 -52 17 -928 11 -935 -6 -1388 -15 -1421
-29 -10 -4 -21 -20 -24 -36 -5 -28 -7 -29 -69 -29 -41 0 -118 -14 -217 -39
-179 -46 -206 -56 -278 -106 l-54 -37 -160 5 c-230 7 -276 24 -502 189 -66 48
-141 97 -165 108 -50 23 -107 25 -161 6z m1668 -2531 c75 -14 185 -57 185 -71
0 -4 -11 -35 -24 -68 -48 -120 -89 -296 -90 -386 -1 -78 2 -90 33 -150 18 -36
49 -84 68 -108 34 -42 96 -82 109 -70 3 3 -11 28 -32 55 -20 26 -49 73 -63
103 -22 48 -26 67 -25 147 4 267 104 357 490 438 70 15 139 31 153 36 31 12
156 3 227 -16 88 -25 148 -106 214 -290 42 -116 52 -259 25 -350 -26 -91 -82
-193 -133 -244 -93 -92 -307 -180 -487 -201 -162 -19 -464 -17 -565 4 -295 62
-483 205 -552 417 -21 66 -21 75 -10 179 27 237 95 350 284 465 72 44 84 55
92 88 5 20 13 37 17 37 4 0 42 -7 84 -15z"/>
</g>
</svg>
