<?xml version="1.0" standalone="no"?>
<!DOCTYPE svg PUBLIC "-//W3C//DTD SVG 20010904//EN"
 "http://www.w3.org/TR/2001/REC-SVG-20010904/DTD/svg10.dtd">
<svg version="1.0" xmlns="http://www.w3.org/2000/svg"
 width="1280.000000pt" height="640.000000pt" viewBox="0 0 1280.000000 640.000000"
 preserveAspectRatio="xMidYMid meet">
<metadata>
Created by potrace 1.15, written by Peter Selinger 2001-2017
</metadata>
<g transform="translate(0.000000,640.000000) scale(0.100000,-0.100000)"
fill="#000000" stroke="none">
<path d="M8533 4823 c-22 -4 -23 -8 -23 -118 l0 -114 170 -3 170 -3 0 86 c0
80 -2 87 -27 111 -16 14 -38 31 -50 37 -21 10 -191 13 -240 4z m188 -113 c29
-16 26 -67 -6 -82 -48 -22 -100 43 -63 80 15 15 43 15 69 2z"/>
<path d="M8250 4809 c-52 -4 -358 -26 -680 -49 -322 -22 -615 -44 -652 -49
-70 -10 -119 -35 -139 -74 -13 -22 -33 -348 -24 -383 5 -21 9 -22 327 -28 178
-3 726 -9 1218 -12 l896 -6 14 26 c10 19 11 34 4 54 -11 30 5 29 -236 16 -137
-7 -338 3 -338 16 0 5 76 6 168 3 96 -3 171 -2 174 3 3 5 -13 59 -34 120 -37
105 -42 112 -70 118 -17 3 -130 6 -253 6 -217 0 -222 0 -242 23 -21 23 -73
103 -73 112 0 18 21 -3 55 -55 38 -58 40 -60 82 -60 l43 0 0 115 0 115 -72 -1
c-40 -1 -116 -5 -168 -10z m-287 -218 l288 -6 19 -25 c11 -14 20 -34 22 -45 2
-16 13 -21 57 -27 67 -8 102 -33 120 -85 38 -107 -66 -204 -172 -160 -41 18
-77 68 -77 108 l0 26 -142 6 c-79 4 -342 7 -584 7 l-441 0 -7 -39 c-7 -45 -57
-95 -105 -106 -44 -9 -113 25 -136 69 -31 57 -17 111 44 167 28 26 51 52 51
58 0 7 12 23 26 36 l27 25 361 -1 c199 -1 491 -4 649 -8z m886 -78 c0 -16 -4
-37 -9 -48 -7 -16 -9 -13 -9 18 l-1 37 -107 1 c-60 0 -126 4 -148 8 -28 6 6 9
118 10 l157 1 -1 -27z m-319 -50 l0 -33 144 0 c86 0 147 -4 151 -10 4 -7 -50
-10 -154 -10 l-161 0 0 58 c0 40 3 53 10 42 5 -8 10 -30 10 -47z"/>
<path d="M6864 4469 c-21 -11 -54 -58 -54 -78 0 -16 30 -13 65 5 20 10 44 13
75 9 51 -6 74 4 64 29 -15 38 -101 58 -150 35z"/>
<path d="M8290 4452 l-23 -19 49 -23 c27 -13 67 -39 88 -57 22 -18 44 -33 49
-33 6 0 7 20 4 47 -4 37 -12 54 -36 75 -38 34 -96 38 -131 10z"/>
<path d="M8240 4359 c0 -33 6 -47 34 -75 27 -27 42 -34 74 -34 24 0 49 7 62
18 l23 19 -31 21 c-16 12 -38 22 -48 22 -9 0 -32 16 -51 35 -46 47 -63 46 -63
-6z"/>
<path d="M6950 4356 c-16 -10 -42 -12 -77 -9 -45 5 -53 3 -53 -11 0 -9 11 -28
25 -41 19 -19 35 -25 70 -25 26 0 55 5 66 10 19 10 49 59 49 80 0 14 -50 12
-80 -4z"/>
<path d="M2126 4768 c-22 -36 -25 -59 -35 -293 -6 -121 -14 -262 -17 -312 l-6
-93 -337 1 c-185 1 -514 4 -731 8 -321 6 -398 5 -410 -6 -19 -17 -26 -140 -10
-187 l12 -36 486 0 c268 0 599 -3 736 -7 237 -6 247 -7 215 -22 -29 -14 -34
-22 -37 -54 -4 -51 8 -63 72 -72 33 -4 57 -12 60 -21 4 -10 22 -14 60 -14 l54
0 4 78 c2 50 -2 89 -11 112 -8 20 -14 73 -15 122 -1 78 1 90 22 110 21 21 33
23 148 26 131 4 165 -1 147 -19 -7 -7 -66 -12 -144 -12 l-134 -2 -13 -50 c-10
-39 -11 -65 -2 -117 l12 -67 131 -3 132 -3 13 -75 c6 -41 10 -81 7 -87 -2 -7
-17 -13 -33 -13 -35 0 -60 -26 -97 -99 -37 -74 -30 -96 37 -116 28 -8 62 -15
74 -15 29 0 77 55 99 115 17 44 17 48 1 76 -17 29 -17 29 11 46 l29 16 -19 86
c-24 115 -18 261 17 386 14 50 26 95 26 102 0 13 -279 390 -336 452 -48 54
-101 81 -158 81 -36 0 -48 -5 -60 -22z m200 -184 c12 -3 26 -16 32 -28 6 -13
54 -83 107 -156 103 -142 123 -178 102 -186 -7 -2 -107 -3 -222 -2 l-210 3 -3
167 -2 168 32 20 c33 20 116 27 164 14z m229 -1004 c7 -11 -18 -75 -33 -84 -5
-3 -24 -3 -41 0 -26 6 -30 10 -25 28 13 44 34 66 64 66 16 0 31 -4 35 -10z"/>
<path d="M2190 4563 c-35 -13 -40 -35 -40 -190 0 -146 1 -153 20 -153 17 0 20
7 20 39 0 68 12 131 25 131 7 0 22 8 33 18 16 13 21 33 25 90 l4 72 -36 -1
c-20 0 -43 -3 -51 -6z"/>
<path d="M5485 4353 c-2165 -21 -2685 -31 -2723 -52 -12 -6 -29 -28 -38 -49
-16 -39 -64 -209 -64 -229 0 -6 12 -14 28 -17 15 -3 641 -10 1392 -15 751 -6
1589 -13 1863 -16 l497 -6 0 84 c0 47 7 120 15 162 14 77 9 120 -18 137 -11 7
-353 7 -952 1z"/>
<path d="M6698 4262 c-17 -3 -18 -22 -18 -225 0 -122 -3 -273 -7 -334 -5 -98
-4 -113 9 -113 20 0 28 21 28 70 0 23 6 43 16 51 15 13 16 38 10 249 -7 266
-13 307 -38 302z"/>
<path d="M6604 4253 l-31 -4 -6 -157 c-4 -86 -7 -229 -7 -318 l0 -161 37 -11
c23 -7 41 -8 47 -2 5 5 11 154 14 335 4 273 3 325 -9 323 -8 0 -28 -3 -45 -5z"/>
<path d="M6525 4231 c-3 -6 -17 -11 -29 -11 -20 0 -24 -6 -30 -52 -8 -69 -8
-340 1 -445 5 -70 9 -83 24 -83 9 0 19 -6 22 -12 3 -9 8 -10 15 -3 11 10 20
600 10 611 -3 3 -9 1 -13 -5z"/>
<path d="M6760 3986 l0 -223 484 -6 c267 -3 500 -3 520 0 l35 6 -19 25 c-22
28 -27 91 -8 110 7 7 29 12 50 12 33 0 40 -4 49 -27 14 -36 5 -92 -18 -108
-10 -7 -15 -16 -12 -19 3 -3 251 -10 550 -14 l544 -9 60 25 c124 52 155 97
182 263 14 87 15 102 2 110 -8 5 -57 9 -109 9 -160 0 -157 15 4 20 98 3 151 9
153 16 3 9 -263 13 -1004 18 -554 3 -1110 8 -1235 10 l-228 5 0 -223z m622
181 c12 -19 20 -106 11 -119 -5 -8 -10 10 -13 47 l-5 60 -137 3 -138 3 -1 -58
c0 -49 -2 -54 -11 -36 -7 15 -8 37 -2 65 7 33 14 43 34 48 39 10 254 -1 262
-13z m1693 -67 c38 -10 -861 -13 -1011 -2 l-109 7 80 5 c126 8 1007 0 1040
-10z m-1828 -77 c-4 -17 -4 -17 -12 0 -4 9 -4 25 0 35 8 16 8 16 12 0 3 -10 3
-26 0 -35z m1868 -70 c-4 -27 -14 -63 -22 -80 -17 -37 -89 -89 -146 -104 -41
-11 -76 -6 -42 6 11 4 48 20 83 37 73 34 96 65 106 139 4 27 12 49 17 49 8 0
9 -16 4 -47z"/>
<path d="M9216 4118 c-3 -13 -10 -57 -17 -98 -25 -159 -59 -214 -162 -265
l-74 -37 -344 1 c-189 0 -439 4 -555 7 l-211 7 -6 -48 c-4 -26 -7 -62 -7 -80
0 -37 -23 -64 -36 -44 -4 7 -10 48 -12 91 l-5 78 -151 0 c-83 0 -316 3 -518 7
l-368 6 0 -56 c0 -60 -1 -59 95 -140 27 -23 30 -32 36 -108 4 -46 8 -128 8
-182 1 -84 -2 -103 -19 -124 -11 -14 -20 -35 -20 -47 0 -20 24 -27 353 -100
193 -43 406 -91 472 -106 117 -28 130 -29 463 -33 l342 -5 1 161 c1 89 4 175
8 191 8 36 46 65 89 68 36 3 37 4 18 23 -7 8 -16 41 -20 75 -4 33 -16 76 -27
94 -21 36 -18 58 14 94 28 31 72 29 102 -4 30 -32 31 -56 6 -98 -10 -17 -21
-57 -24 -89 -3 -32 -11 -65 -18 -73 -10 -12 12 -14 155 -15 91 -1 170 -2 176
-3 5 -1 20 19 33 44 27 52 91 105 145 120 20 5 62 10 93 10 55 0 57 1 63 31
22 111 14 538 -12 634 -11 40 -59 49 -66 13z m-1443 -419 c10 -39 -14 -68 -27
-33 -7 19 1 54 14 54 4 0 10 -9 13 -21z m112 -14 c0 -16 -6 -30 -12 -32 -9 -3
-13 7 -13 32 0 25 4 35 13 33 6 -3 12 -17 12 -33z m-1050 9 c19 -20 16 -43 -7
-58 -21 -13 -51 2 -56 26 -3 16 23 48 38 48 5 0 16 -7 25 -16z m2123 -36 c30
-30 0 -78 -37 -58 -26 13 -27 45 -3 59 22 13 26 13 40 -1z m-1865 -60 c12 -13
40 -44 61 -70 30 -38 37 -53 32 -73 -10 -38 -35 -43 -61 -11 -27 34 -35 25
-35 -40 0 -38 -4 -53 -16 -58 -31 -12 -52 -6 -58 17 -9 36 -7 203 4 231 12 33
43 34 73 4z m190 -56 c3 -37 3 -96 -1 -132 -7 -64 -7 -65 -37 -65 -30 0 -30 0
-40 76 -5 42 -16 84 -24 93 -11 13 -11 21 -1 47 19 44 34 56 68 51 29 -4 30
-6 35 -70z m1224 13 c8 -24 0 -27 -70 -28 -70 -2 -83 3 -74 28 5 11 22 15 72
15 50 0 67 -4 72 -15z m350 0 c8 -24 0 -27 -71 -29 -69 -1 -82 4 -73 29 5 11
22 15 72 15 50 0 67 -4 72 -15z m-837 -10 c17 -20 5 -45 -20 -45 -23 0 -35 22
-26 45 7 19 30 19 46 0z m-146 -49 c30 -19 32 -29 10 -50 -13 -14 -46 -16
-212 -15 -108 1 -208 4 -221 8 -38 10 -49 36 -26 62 20 21 24 21 222 17 167
-4 206 -8 227 -22z m316 -292 c30 -88 24 -150 -18 -210 -37 -52 -21 -59 25
-11 63 64 88 161 63 246 -9 32 -9 33 18 26 15 -3 42 -18 61 -33 97 -78 95
-214 -4 -301 l-36 -31 -227 2 -227 3 -5 35 c-4 19 -15 48 -25 64 -31 46 -27
132 8 184 15 23 39 49 53 59 27 17 111 29 226 32 l66 1 22 -66z m233 -319 c1
-5 -6 -11 -15 -13 -11 -2 -18 3 -18 13 0 17 30 18 33 0z"/>
<path d="M9314 4034 c13 -204 15 -317 8 -453 -4 -93 -3 -145 3 -147 6 -2 113
-22 239 -44 345 -61 214 -20 1516 -472 776 -269 1116 -387 1133 -393 28 -11
20 -29 -31 -72 -60 -51 -102 -125 -86 -150 26 -39 158 -2 208 58 22 26 46 67
61 106 1 2 24 -6 53 -17 48 -19 52 -19 61 -2 19 36 83 476 120 832 49 457 60
662 41 732 l-10 36 -73 6 c-39 3 -299 13 -577 21 -278 8 -649 20 -825 25 -176
6 -664 13 -1083 17 l-764 6 6 -89z m2949 -1629 c-3 -9 -18 -22 -34 -30 -55
-29 -67 -13 -16 23 37 26 59 29 50 7z"/>
<path d="M125 4101 c-73 -8 -98 -21 -115 -61 -20 -48 -8 -155 21 -186 22 -24
25 -24 196 -24 95 0 173 2 173 5 0 3 -9 22 -20 42 -22 42 -26 115 -9 176 6 22
9 40 7 42 -8 6 -200 11 -253 6z m185 -31 c0 -15 -39 -21 -124 -18 -52 2 -81 7
-84 16 -3 9 22 12 102 12 63 0 106 -4 106 -10z m-62 -70 c20 0 44 -5 52 -10
13 -9 12 -12 -4 -25 -14 -11 -46 -15 -112 -15 -76 0 -96 3 -115 19 -19 16 -21
21 -9 25 18 7 120 13 138 9 8 -2 30 -3 50 -3z m49 -112 c27 -11 27 -12 -27
-19 -30 -4 -84 -4 -120 -1 -64 5 -64 6 -35 18 38 17 145 18 182 2z"/>
<path d="M408 4083 c-20 -22 -33 -109 -24 -157 8 -43 51 -96 77 -96 23 0 23 3
2 43 -16 30 -22 135 -11 202 4 26 -24 31 -44 8z"/>
<path d="M483 4074 c-24 -37 -24 -147 1 -194 23 -42 33 -50 69 -50 l27 0 -16
38 c-18 43 -21 153 -5 195 6 16 11 29 11 30 0 1 -16 3 -35 4 -28 2 -38 -2 -52
-23z"/>
<path d="M12657 4053 c-3 -2 0 -21 5 -41 15 -52 4 -277 -27 -582 -37 -362 -90
-781 -116 -905 -6 -27 -12 -60 -15 -72 -4 -20 0 -23 30 -23 78 0 105 30 126
138 32 172 87 595 95 742 4 58 13 155 21 215 36 272 29 428 -24 486 -25 27
-84 54 -95 42z"/>
<path d="M2661 3971 c-28 -18 12 -258 54 -322 39 -60 52 -61 790 -79 220 -5
679 -17 1020 -25 1320 -32 1481 -35 1694 -35 121 0 222 4 225 9 9 14 9 42 1
242 l-8 186 -386 6 c-212 4 -969 9 -1681 12 -712 3 -1385 7 -1495 10 -110 3
-206 1 -214 -4z"/>
<path d="M8569 3243 c-54 -8 -63 -32 -67 -179 -5 -169 1 -216 31 -229 29 -13
79 -107 79 -150 0 -18 -6 -50 -13 -70 -12 -34 -12 -38 6 -51 10 -8 30 -14 43
-14 40 0 81 -55 165 -217 79 -154 86 -181 65 -240 -15 -40 -5 -61 36 -81 32
-16 131 -3 435 59 185 38 231 51 231 67 0 11 -46 85 -320 516 -278 440 -305
488 -297 546 4 33 2 39 -17 44 -23 6 -335 5 -377 -1z"/>
<path d="M6906 2956 c-29 -408 -41 -474 -161 -875 -47 -156 -84 -285 -83 -285
2 -1 23 -11 48 -23 25 -13 67 -24 94 -25 58 -3 45 -30 140 287 74 245 109 395
130 555 20 152 32 400 19 400 -5 0 -48 8 -95 19 l-87 19 -5 -72z"/>
<path d="M7136 2917 c-3 -34 -8 -107 -11 -162 -13 -229 -66 -476 -175 -822
-33 -106 -60 -197 -60 -202 0 -14 201 -75 210 -64 7 8 79 256 134 463 34 127
71 311 90 445 14 95 36 307 36 342 0 6 -42 21 -97 33 -54 12 -103 23 -110 25
-8 3 -13 -17 -17 -58z"/>
<path d="M7396 2898 c-3 -13 -12 -95 -21 -183 -27 -270 -57 -414 -169 -820
-73 -265 -72 -255 -16 -276 25 -10 61 -18 80 -18 l36 -1 48 178 c90 332 154
597 170 712 28 199 43 380 31 389 -5 5 -35 14 -65 21 -30 6 -63 14 -72 16 -12
4 -19 -2 -22 -18z"/>
<path d="M7600 2865 c0 -28 -31 -315 -41 -380 -18 -118 -65 -317 -144 -614
-57 -217 -72 -287 -62 -293 24 -16 79 -4 98 22 33 45 183 571 218 762 23 124
51 364 51 437 0 47 -2 51 -27 57 -16 3 -43 10 -60 14 -25 6 -33 5 -33 -5z"/>
</g>
</svg>
