<?xml version="1.0" standalone="no"?>
<!DOCTYPE svg PUBLIC "-//W3C//DTD SVG 20010904//EN"
 "http://www.w3.org/TR/2001/REC-SVG-20010904/DTD/svg10.dtd">
<svg version="1.0" xmlns="http://www.w3.org/2000/svg"
 width="1280.000000pt" height="640.000000pt" viewBox="0 0 1280.000000 640.000000"
 preserveAspectRatio="xMidYMid meet">
<metadata>
Created by potrace 1.15, written by Peter Selinger 2001-2017
</metadata>
<g transform="translate(0.000000,640.000000) scale(0.100000,-0.100000)"
fill="#000000" stroke="none">
<path d="M3585 4195 c-164 -27 -352 -75 -506 -131 -67 -24 -262 -124 -345
-176 -61 -39 -182 -98 -244 -120 -82 -28 -204 -33 -350 -14 -186 24 -373 36
-575 36 -201 0 -737 -17 -916 -29 -115 -7 -116 -8 -190 -54 -97 -60 -113 -66
-228 -77 -110 -11 -193 -34 -216 -60 -14 -16 -15 -34 -6 -156 6 -77 15 -251
21 -389 26 -632 60 -823 144 -833 81 -10 451 143 1292 534 303 141 479 218
500 218 40 0 61 -17 69 -54 11 -48 50 -55 295 -54 257 1 334 8 326 31 -11 28
-7 228 5 279 18 76 68 161 122 209 91 82 255 145 379 145 61 0 71 -3 103 -31
25 -23 40 -48 55 -97 27 -86 57 -124 125 -157 51 -26 62 -27 162 -23 148 5
186 23 245 114 57 88 109 138 178 172 l55 27 583 3 c370 1 582 6 582 12 0 6
15 10 33 10 32 0 33 -1 29 -34 l-4 -34 214 -6 c528 -16 1958 -25 2472 -16 515
10 637 15 878 41 l106 11 7 34 6 33 137 3 136 3 19 60 c21 67 18 129 -9 208
l-16 47 -128 0 -129 0 -13 26 c-10 20 -33 35 -93 58 l-80 31 1070 9 c589 5
1480 8 1981 6 l911 -3 6 33 c10 49 9 50 -20 39 -34 -13 -204 -28 -413 -38
-146 -7 -139 -8 127 -9 277 -2 282 -2 288 19 9 27 16 20 9 -8 l-6 -22 -582 2
c-481 1 -542 3 -356 9 650 22 970 48 970 78 0 28 -431 57 -1160 78 -219 6
-144 8 432 9 l698 2 6 -27 c10 -44 12 -48 13 -20 1 14 -2 33 -5 42 -6 15 -416
16 -4563 15 -3686 -1 -4571 -4 -4636 -14z m1728 -50 c65 10 262 24 472 32
l190 8 -350 5 c-245 4 -144 5 340 6 380 0 679 -1 665 -3 -14 -1 -196 -7 -405
-13 -532 -15 -898 -36 -948 -55 -15 -6 -17 -1 -15 36 1 39 2 40 5 10 4 -33 5
-33 46 -26z m117 -75 c52 -7 51 -8 -34 -9 -74 -1 -87 -3 -82 -16 4 -11 -2 -15
-24 -15 -26 0 -30 3 -30 29 l0 30 58 -6 c31 -3 82 -9 112 -13z m-2004 -604
c-37 -55 -41 -87 -15 -145 23 -54 46 -70 34 -23 -19 74 -18 113 5 137 40 42
116 68 216 73 l92 4 37 -34 c32 -29 38 -42 42 -84 6 -68 -19 -111 -87 -146
-47 -25 -63 -28 -149 -28 -85 0 -104 3 -150 26 -75 38 -106 90 -102 171 1 29
46 81 74 85 31 5 31 5 3 -36z"/>
<path d="M5270 4059 c0 -22 25 -26 33 -5 3 8 -2 16 -14 19 -14 4 -19 0 -19
-14z"/>
<path d="M12240 4179 c198 -8 436 -25 493 -35 37 -7 39 -6 35 17 l-3 24 -350
1 c-294 1 -322 0 -175 -7z"/>
</g>
</svg>
